# xmcd
#
# Track frame offsets: 
#        150
#        11116
#        20333
#        30889
#        43119
#        55063
#        67826
#        79122
#        90164
#        102911
#        110682
#        120799
#        132059
#        145454
#        156560
#        166810
#        177671
#        187273
#        199509
#        212593
#        221832
#        234594
#
# Disc length: 3276 seconds
#
# Revision: 0
# Processed by: cddbd v1.5.2PL0 Copyright (c) Steve Scherf et al.
# Submitted via: ExactAudioCopy v1.1
#
DISCID=2a0cca16
DTITLE=Various Artist - All-Time Country Favourites - 1960-1964 Disc 
DTITLE=3
DYEAR=2009
DGENRE=Country
TTITLE0=Eddy Arnold - Does he mean that much to you ?
TTITLE1=Marty Robins - Ruby Ann
TTITLE2=Elvis Presley - Stuck on you
TTITLE3=George Jones - A girl I used to know
TTITLE4=Kitty Wells - Heartbreak USA
TTITLE5=Bill Anderson - 8 X 10
TTITLE6=George Hamilton IV - Fort Worth, Dallas or Houston
TTITLE7=Faron Young  - The yellow bandana
TTITLE8=Stonewall Jackson - BJ the DJ
TTITLE9=The Green River Boys featuring Glenn Campbell - Kentucky means
TTITLE9=paradise
TTITLE10=Norma Jean - Go cat go
TTITLE11=Carl Belew - Hello out there
TTITLE12=Carl Butler - Don't let me cross over
TTITLE13=Jimmy Dean - Little black book
TTITLE14=Johnny Cash with the Carter Family - Busted
TTITLE15=Jim Reeves - I guess I'm crazy
TTITLE16=Eddy Arnold - After loving you
TTITLE17=Hank Snow - The man who robbed the bank at Sante Fe
TTITLE18=Bobby Bare - Miller's cave
TTITLE19=Porter Waggoner - Sorrow on the rocks
TTITLE20=David Houston - Mountain of love
TTITLE21=Hank Locklin - Happy birthday to me
EXTD=
EXTT0=
EXTT1=
EXTT2=
EXTT3=
EXTT4=
EXTT5=
EXTT6=
EXTT7=
EXTT8=
EXTT9=
EXTT10=
EXTT11=
EXTT12=
EXTT13=
EXTT14=
EXTT15=
EXTT16=
EXTT17=
EXTT18=
EXTT19=
EXTT20=
EXTT21=
PLAYORDER=
